<svg width="33" height="28" viewBox="0 0 33 28" fill="none" xmlns="http://www.w3.org/2000/svg">
<path d="M11.1295 0.0820271C11.6462 -0.156462 14.4915 0.181398 15.8496 0.380139H17.1911C17.5886 0.141649 20.4703 0.082027 21.8615 0.0820271C19.9536 0.559005 19.6422 0.976362 19.7251 1.12542L22.3584 0.678251C24.8426 0.0820271 29.6124 0.380139 31.8483 1.27447C28.8175 1.42353 26.9791 0.827306 25.5879 0.976362C24.5776 1.22479 21.8416 1.84089 18.9798 2.31786C16.1179 2.79484 12.8519 2.11912 11.5767 1.72164C8.95329 0.767684 3.52765 0.992924 1.14276 1.22479C7.94964 -0.613566 13.266 1.1751 13.2163 0.976362C13.1765 0.817369 11.8085 0.313892 11.1295 0.0820271Z" fill="#7EA729"/>
<path d="M1.68082 4.75252C-0.346339 7.05791 -0.124411 13.0334 0.239947 15.733C0.322756 16.5114 0.607618 18.3961 1.0846 19.7078C1.68082 21.3474 2.12799 22.3908 3.56886 24.0304C4.81539 25.4489 8.19717 27.3959 10.0279 27.6574L10.0945 27.6669C12.1287 27.9576 12.7798 28.0506 14.5493 27.6574C16.7851 27.1606 16.7543 27.3293 17.5304 27.5084C18.1763 27.6574 20.2134 27.823 21.1574 27.9555H21.1688C21.7751 27.9556 23.482 27.9558 26.5235 26.4153C30.3492 24.4776 31.8895 19.6084 32.3863 18.2669C32.8832 16.9254 32.8832 12.3544 32.9825 11.5594C33.0819 10.7644 32.8335 5.7959 30.2002 3.4607C27.5668 0.877064 25.8279 0.92675 25.4304 0.92675C25.0329 0.92675 20.5115 1.72171 19.4185 2.1192C18.3254 2.51668 14.0028 2.31794 13.4065 2.1192C12.346 1.76567 11.2401 1.48921 10.1383 1.29974C9.8749 1.25444 9.5983 1.21166 9.32069 1.17199C7.95594 0.977008 6.56927 1.14655 5.25816 1.57266C4.91036 1.67203 3.70798 2.44712 1.68082 4.75252Z" fill="#EE4036"/>
<path d="M16.5461 1.14131L16.2199 1.07264C16.0838 1.04398 15.9748 0.942366 15.9365 0.808624C15.8681 0.568996 16.048 0.33046 16.2972 0.33046H16.6305C16.8927 0.33046 17.0875 0.573243 17.0306 0.82918C16.9819 1.04838 16.7659 1.18757 16.5461 1.14131Z" fill="#4A6E2A"/>
<path d="M0.298126 16.031H32.7426L32.6936 16.826H0.447182L0.347811 16.4285L0.298126 16.031Z" fill="#AB0202"/>
<rect x="1.49054" y="13.8448" width="0.298112" height="1.6893" fill="white"/>
<rect x="20.371" y="13.8448" width="0.298112" height="1.6893" fill="white"/>
<rect x="28.42" y="13.8448" width="0.298112" height="1.6893" fill="white"/>
<rect x="31.103" y="13.8448" width="0.298112" height="1.6893" fill="white"/>
<rect x="25.737" y="13.8448" width="0.298112" height="1.6893" fill="white"/>
<rect x="23.054" y="13.8448" width="0.298112" height="1.6893" fill="white"/>
<rect x="17.688" y="13.8448" width="0.298112" height="1.6893" fill="white"/>
<rect x="15.005" y="13.8448" width="0.298112" height="1.6893" fill="white"/>
<rect x="12.3219" y="13.8448" width="0.298112" height="1.6893" fill="white"/>
<rect x="9.63893" y="13.8448" width="0.298112" height="1.6893" fill="white"/>
<rect x="6.85658" y="13.8448" width="0.298112" height="1.6893" fill="white"/>
<rect x="4.17355" y="13.8448" width="0.298112" height="1.6893" fill="white"/>
<path d="M16.4955 17.8197L17.6143 19.7574H15.3768L16.4955 17.8197Z" fill="white"/>
</svg>
